<?xml version="1.0" encoding="utf-8"?>
<!-- Generator: Adobe Illustrator 24.1.2, SVG Export Plug-In . SVG Version: 6.00 Build 0)  -->
<svg version="1.1" id="Layer_1" xmlns="http://www.w3.org/2000/svg" xmlns:xlink="http://www.w3.org/1999/xlink" x="0px" y="0px"
	 viewBox="0 0 573 718" style="enable-background:new 0 0 573 718;" xml:space="preserve">
<style type="text/css">
	.st0{fill:#C51A1B;}
	.st1{fill:#D3A383;}
	.st2{fill:#005CA9;}
	.st3{fill:#FFED00;}
	.st4{fill:#A95F41;}
	.st5{fill:#5C3523;}
	.st6{fill:none;stroke:#5C3523;stroke-width:2;stroke-miterlimit:10;}
</style>
<g>
	<path class="st0" d="M490.38,605.23c-2.69-8.29-16.86-8.64-19.55-8.63c-0.28,0-0.55,0.02-0.82,0.06l-31.13,4.68
		c-0.58,0.09-1.17,0.09-1.75-0.01c-2.78-0.46-10.84-2.34-12.24-8.86c0-0.02-0.01-0.04-0.01-0.06c-0.65-2.94-3.61-4.76-6.57-4.2
		l-17.13,3.27c-2.92,0.56-4.92,3.28-4.57,6.24l3.11,26.3c0.74,6.27,5.4,10.55,10.33,9.49l63.55-13.67c0.14-0.03,0.26-0.06,0.39-0.1
		C476.08,619.12,493.17,613.84,490.38,605.23z"/>
	<path class="st0" d="M172.07,706.22c5.05-7.11-3.13-18.69-4.74-20.84c-0.17-0.22-0.34-0.43-0.54-0.62l-22.33-22.19
		c-0.42-0.41-0.77-0.89-1.04-1.41c-1.29-2.51-4.59-10.09-0.2-15.11c0.01-0.02,0.03-0.03,0.04-0.05c1.97-2.27,1.67-5.74-0.55-7.78
		l-12.85-11.79c-2.19-2.01-5.57-1.99-7.73,0.06l-19.24,18.19c-4.59,4.34-5.24,10.63-1.45,13.95l48.9,42.83
		c0.1,0.09,0.2,0.17,0.32,0.26C152.39,703.04,166.83,713.6,172.07,706.22z"/>
	<path class="st1" d="M527.11,316.05L527.11,316.05c-4.76,0.93-9.41-2.21-10.34-6.97l-6.58-33.78c-0.93-4.76,2.21-9.41,6.97-10.34
		l0,0c4.76-0.93,9.41,2.21,10.34,6.97l6.58,33.78C535,310.47,531.87,315.12,527.11,316.05z"/>
	<path class="st2" d="M272.46,485.66l-121.55-22.83c-6.49-1.22-10.8-7.52-9.58-14.01l9.54-50.79c1.22-6.49,7.52-10.8,14.01-9.58
		l121.55,22.83c6.49,1.22,10.8,7.52,9.58,14.01l-9.54,50.79C285.25,482.57,278.94,486.88,272.46,485.66z"/>
	<path class="st0" d="M276.26,413.89l-99.48-18.69c-16.53-3.1-27.51-19.17-24.41-35.69l26.42-140.64
		c3.1-16.53,19.17-27.51,35.69-24.41l99.48,18.69c16.53,3.1,27.51,19.17,24.41,35.69l-26.42,140.64
		C308.85,406.01,292.79,416.99,276.26,413.89z"/>
	
		<rect x="190.72" y="193.31" transform="matrix(0.9828 0.1846 -0.1846 0.9828 57.9546 -31.6217)" class="st2" width="16.16" height="204.24"/>
	
		<rect x="283.14" y="210.67" transform="matrix(0.9828 0.1846 -0.1846 0.9828 62.7479 -48.3855)" class="st2" width="16.16" height="204.24"/>
	<path class="st3" d="M320.41,208.78c2-10.62-5-20.86-15.62-22.85c-7.66-1.44-15.11,1.81-19.42,7.72
		c-1.87-7.07-7.63-12.8-15.29-14.24c-8.6-1.61-16.93,2.66-20.86,9.98c-1-8.24-7.22-15.25-15.82-16.87c-10.62-2-20.86,5-22.85,15.62
		c-1.74,9.28,3.38,18.27,11.79,21.72c-0.03,0.13-0.07,0.26-0.1,0.4c-2,10.62,5,20.86,15.62,22.85c0.8,0.15,1.59,0.23,2.38,0.28
		c1.84,7.12,7.62,12.91,15.32,14.36c7.94,1.49,15.66-2.04,19.89-8.36c1.59,0.8,3.31,1.4,5.14,1.75c10.62,2,20.86-5,22.85-15.62
		c0.06-0.31,0.08-0.61,0.13-0.92C311.81,223.57,318.8,217.36,320.41,208.78z"/>
	<circle class="st3" cx="251.82" cy="263.52" r="8.85"/>
	<circle class="st3" cx="247.34" cy="287.35" r="8.85"/>
	
		<ellipse transform="matrix(0.5325 -0.8464 0.8464 0.5325 23.2296 499.9389)" class="st1" cx="464.2" cy="228.94" rx="15.8" ry="57.49"/>
	<path class="st0" d="M330.5,247.52c3.38,7.31,26.1,4.12,52.26-6.9l-13.15-28.44C344.26,224.96,327.11,240.21,330.5,247.52z"/>
	<path class="st1" d="M376.05,209.05c-2.2,1.02-4.35,2.06-6.45,3.12l13.15,28.44c2.17-0.91,4.35-1.87,6.55-2.89
		c28.82-13.33,49.21-30.55,45.55-38.47C431.19,191.34,404.86,195.72,376.05,209.05z"/>
	<circle class="st4" cx="421.59" cy="207.18" r="14.04"/>
	
		<ellipse transform="matrix(0.6722 -0.7404 0.7404 0.6722 -32.3654 489.8538)" class="st1" cx="537.03" cy="281.48" rx="20.22" ry="30.44"/>
	<circle class="st4" cx="510.83" cy="258.28" r="14.04"/>
	
		<ellipse transform="matrix(0.9534 -0.3019 0.3019 0.9534 -142.2679 142.9832)" class="st1" cx="391.48" cy="531.79" rx="15.8" ry="57.49"/>
	<path class="st2" d="M270.65,475.38c-0.6,8.03,20.79,16.31,49.01,19.4l2.35-31.25C293.65,462.36,271.25,467.34,270.65,475.38z"/>
	<path class="st1" d="M329.16,463.94c-2.42-0.18-4.8-0.32-7.15-0.41l-2.35,31.25c2.34,0.26,4.71,0.48,7.13,0.66
		c31.66,2.38,57.86-2.74,58.51-11.44C385.96,475.3,360.82,466.32,329.16,463.94z"/>
	<circle class="st4" cx="369.85" cy="484.47" r="14.04"/>
	<circle class="st4" cx="407.21" cy="583.23" r="14.04"/>
	
		<ellipse transform="matrix(0.6752 -0.7376 0.7376 0.6752 -375.1776 321.149)" class="st1" cx="177.1" cy="586.62" rx="57.49" ry="15.8"/>
	<path class="st2" d="M165.64,452.75c-7.26,3.49-3.74,26.16,7.67,52.15l28.25-13.57C188.4,466.18,172.9,449.26,165.64,452.75z"/>
	<path class="st1" d="M204.77,498.74c-1.05-2.19-2.13-4.32-3.22-6.4L173.3,505.9c0.94,2.15,1.94,4.32,2.99,6.51
		c13.75,28.62,31.27,48.76,39.13,44.98C223.28,553.62,218.51,527.36,204.77,498.74z"/>
	<circle class="st4" cx="207.3" cy="544.24" r="14.04"/>
	<circle class="st4" cx="140.39" cy="625.92" r="14.04"/>
	<path class="st1" d="M54.69,50.74L54.69,50.74c4.63,1.43,7.25,6.39,5.82,11.03L50.34,94.65c-1.43,4.63-6.39,7.25-11.03,5.82l0,0
		c-4.63-1.43-7.25-6.39-5.82-11.03l10.16-32.88C45.09,51.93,50.06,49.31,54.69,50.74z"/>
	
		<ellipse transform="matrix(0.8693 -0.4943 0.4943 0.8693 -68.7107 54.6436)" class="st1" cx="68.96" cy="157.24" rx="15.8" ry="57.49"/>
	<path class="st0" d="M195.58,204.05c0.48-8.04-21.05-15.97-49.32-18.61l-1.85,31.28C172.79,217.43,195.1,212.09,195.58,204.05z"/>
	<path class="st1" d="M137.26,216.43c2.42,0.14,4.81,0.24,7.16,0.3l1.85-31.28c-2.34-0.22-4.72-0.41-7.14-0.55
		c-31.7-1.87-57.81,3.67-58.32,12.38C80.28,205.98,105.56,214.56,137.26,216.43z"/>
	<circle class="st4" cx="96.24" cy="196.56" r="14.04"/>
	<circle class="st4" cx="260.63" cy="209.11" r="14.04"/>
	
		<ellipse transform="matrix(0.9423 -0.3348 0.3348 0.9423 -23.9119 14.3304)" class="st1" cx="29.61" cy="76.52" rx="20.22" ry="30.44"/>
	<circle class="st4" cx="41.73" cy="109.35" r="14.04"/>
	<path class="st0" d="M344.61,35.66l-50.95,75.47l-1.58,2.33l-11.9,17.62l-11.45,16.96l-2.12,3.15l-8.77,12.98l-26.76-13.46
		c1.17-4.3,2.86-8.34,5-12.08l18.62-17.68l3.23-3.05l18.29-17.36L344.61,35.66z"/>
	<polygon class="st3" points="344.61,35.65 257.85,164.18 291.26,180.97 	"/>
	<path class="st0" d="M328.76,186.19l0,0.01c-1.71,3.76-3.85,7.25-6.35,10.43l-31.15-15.66l3.51-9.58l0-0.01l0.85-2.3l1.47-4.02
		l1.15-3.12l1.55-4.22l0-0.01l7.46-20.31l1.24-3.36l4.13-11.28l0.3-0.8l1.77-4.83l0-0.01l29.68-80.87l0.22-0.58l-0.05,0.53
		l-0.06,0.55l-8.91,84.74l-0.35,3.34l-2.68,25.34c-0.55-0.46-1.05-0.97-1.51-1.51c0.23,0.72,0.45,1.45,0.65,2.17
		c0.21,0.75,0.39,1.49,0.56,2.26l0,0.01L328.76,186.19z"/>
	<polygon class="st2" points="343.81,36.33 359.69,21.87 375.53,7.4 379.75,14.7 384.04,21.98 363.93,29.14 	"/>
	<polygon class="st0" points="344.3,36.55 359.45,41.53 374.59,46.47 370.46,53.11 366.36,59.77 355.34,48.16 	"/>
	<path class="st1" d="M333.13,170.59c-0.66,5.55-2.16,10.78-4.37,15.6l0,0.01c-1.71,3.76-3.85,7.25-6.35,10.43
		c-10.85,13.82-28.45,21.83-47.17,19.61c-19.18-2.27-34.69-14.68-41.8-31.24c-1.25-2.89-2.24-5.91-2.94-9.02
		c-1.27-5.63-1.63-11.57-0.91-17.63c0.31-2.62,0.8-5.17,1.48-7.64c1.17-4.3,2.86-8.34,5-12.08c4.28-7.51,10.35-13.78,17.56-18.31
		c0.47-0.3,0.93-0.58,1.41-0.85c0.94-0.56,1.91-1.08,2.88-1.56c8.83-4.45,19-6.44,29.54-5.2c1.57,0.18,3.1,0.43,4.61,0.75
		c0.98,0.21,1.97,0.45,2.92,0.7c0.35,0.1,0.7,0.2,1.05,0.31c1.07,0.31,2.14,0.66,3.19,1.05c0.44,0.15,0.86,0.32,1.28,0.48l0.01,0
		c4.37,1.73,8.43,4.01,12.09,6.77c0.09,0.07,0.18,0.13,0.27,0.21c0.71,0.53,1.39,1.08,2.07,1.66c0.68,0.57,1.34,1.16,1.98,1.76
		c0.24,0.21,0.46,0.43,0.69,0.66c6.14,5.94,10.77,13.36,13.39,21.6c0.23,0.72,0.45,1.45,0.65,2.17c0.21,0.75,0.39,1.49,0.56,2.26
		l0,0.01C333.5,158.68,333.84,164.58,333.13,170.59z"/>
	<g>
		
			<ellipse transform="matrix(0.1173 -0.9931 0.9931 0.1173 81.9013 389.3885)" class="st5" cx="260" cy="148.62" rx="13.24" ry="2.09"/>
		
			<ellipse transform="matrix(0.1173 -0.9931 0.9931 0.1173 81.9013 389.3885)" class="st5" cx="260" cy="148.62" rx="2.09" ry="13.24"/>
	</g>
	<g>
		
			<ellipse transform="matrix(0.1173 -0.9931 0.9931 0.1173 96.3488 442.7626)" class="st5" cx="297.25" cy="167.18" rx="13.24" ry="2.09"/>
		
			<ellipse transform="matrix(0.1173 -0.9931 0.9931 0.1173 96.3488 442.7626)" class="st5" cx="297.25" cy="167.18" rx="2.09" ry="13.24"/>
	</g>
	<g>
		<path class="st4" d="M217.43,179.67l55.85-15.77c0,0,6.14-0.2,4.45,6.96c-1.69,7.16-8.55,10.82-8.55,10.82l-53.61,4.98
			L217.43,179.67z"/>
		
			<ellipse transform="matrix(0.6737 -0.739 0.739 0.6737 -63.5728 221.4974)" class="st5" cx="219.05" cy="182.74" rx="5.25" ry="3.26"/>
	</g>
	<path class="st6" d="M242.47,184.17c0,0,2.35,14.59,19.33,16.59s30.49-9.37,30.49-9.37"/>
	<path class="st2" d="M361.99,141.96c-1.13,9.6-9.84,16.45-19.44,15.32c-3.64-0.43-6.88-1.95-9.44-4.21
		c-0.61-0.52-1.18-1.1-1.7-1.69c-0.37-0.43-0.71-0.86-1.03-1.31c-2.56,1.7-5.71,2.55-9.02,2.16c-7.39-0.87-12.67-7.57-11.8-14.96
		c0.17-1.44,0.57-2.8,1.14-4.06c-1.37,0.9-2.94,1.51-4.61,1.75c0,0,0,0-0.01,0c-0.97,0.14-1.98,0.16-3,0.04
		c-4.47-0.53-8.04-3.56-9.47-7.53c-3.07,4.25-8.29,6.75-13.87,6.09c-2.01-0.24-3.88-0.87-5.54-1.8l-0.01,0
		c-1.6-0.91-3.01-2.1-4.17-3.5c-1.51,2.28-4.2,3.66-7.1,3.31c-3.83-0.45-6.64-3.73-6.59-7.5c-3.77-0.57-7.08-2.31-9.61-4.79
		c-0.23-0.23-0.44-0.46-0.66-0.69c-3.32-3.63-5.09-8.6-4.46-13.85c1.13-9.6,9.83-16.46,19.43-15.32c4.46,0.53,8.32,2.69,11.06,5.8
		c2.31,2.63,3.83,5.93,4.25,9.52c2.15-0.8,4.5-1.12,6.93-0.84c2.89,0.34,5.49,1.49,7.6,3.19l0.01,0c2.24,1.82,3.94,4.26,4.84,7.04
		c0.17,0.49,0.3,0.99,0.41,1.5c0.32-0.34,0.68-0.67,1.03-0.96l0.01,0c2.33-1.92,5.39-2.93,8.63-2.55c2.93,0.35,5.47,1.77,7.28,3.82
		l0,0.01c2.09,2.36,3.2,5.58,2.8,8.95c-0.06,0.5-0.15,0.99-0.27,1.46c-0.13,0.53-0.3,1.05-0.52,1.56c0.42-0.29,0.85-0.58,1.29-0.82
		c2.4-1.36,5.22-1.99,8.16-1.65c2.64,0.31,4.98,1.38,6.9,2.93c1.34-1.52,2.93-2.8,4.69-3.79c3.1-1.72,6.74-2.53,10.54-2.08
		C356.25,123.67,363.12,132.37,361.99,141.96z"/>
</g>
</svg>
