<?xml version="1.0" encoding="utf-8"?>
<!-- Generator: Adobe Illustrator 24.1.2, SVG Export Plug-In . SVG Version: 6.00 Build 0)  -->
<svg version="1.1" id="Layer_1" xmlns="http://www.w3.org/2000/svg" xmlns:xlink="http://www.w3.org/1999/xlink" x="0px" y="0px"
	 viewBox="0 0 565.28 382" style="enable-background:new 0 0 565.28 382;" xml:space="preserve">
<style type="text/css">
	.st0{fill:#FDECE5;}
	.st1{fill:#4E55A2;}
	.st2{fill:#FFCD1C;}
	.st3{fill:#FFFFFF;}
	.st4{fill:#88C1DC;}
	.st5{fill:none;}
	.st6{fill:#010202;stroke:#000000;stroke-miterlimit:10;}
</style>
<circle class="st0" cx="276.99" cy="211.51" r="142.16"/>
<path class="st1" d="M511.48,244.05H302.67c-1.37,0-2.49-1.12-2.49-2.49v-132.4c0-1.37,1.12-2.49,2.49-2.49h208.81
	c1.37,0,2.49,1.12,2.49,2.49v132.4C513.97,242.93,512.85,244.05,511.48,244.05z"/>
<g>
	<path class="st2" d="M23.23,46.98c9.65-3.63,19.66-6.36,29.98-8.02l3.88-0.6l3.91-0.4c1.31-0.13,2.61-0.29,3.93-0.35l3.96-0.16
		l1.99-0.08c0.66-0.01,1.33,0.02,1.99,0.03l4,0.1c1.33,0.03,2.67,0.19,4.01,0.3c1.34,0.13,2.68,0.21,4.01,0.46l4.01,0.63
		c1.34,0.26,2.66,0.59,3.99,0.9c1.34,0.27,2.65,0.71,3.96,1.1l1.98,0.6c0.66,0.21,1.3,0.48,1.95,0.72
		c5.17,1.97,10.22,4.57,14.72,7.98c2.27,1.68,4.41,3.54,6.39,5.48c1.97,1.95,3.77,3.99,5.45,5.91c1.68,1.92,3.26,3.72,4.83,5.21
		c1.58,1.48,3.14,2.68,4.88,3.6c3.78,1.99,6.88,2.44,10.64,1.39c3.74-1.05,7.73-3.63,11.7-6.48c7.93-5.81,16.16-12.66,25.64-17.64
		c4.72-2.52,9.72-4.61,14.89-6.06c5.19-1.44,10.47-2.32,15.76-2.57c2.64-0.16,5.29-0.11,7.91,0c2.62,0.15,5.23,0.43,7.81,0.83
		c5.16,0.8,10.2,2.08,15.05,3.82l-0.25,0.97c-5.04-0.8-10.08-1.25-15.09-1.33c-5.01-0.04-9.98,0.33-14.84,1.15
		c-9.75,1.63-18.86,5.17-27.02,10.44c-2.05,1.3-4.06,2.69-6.02,4.16c-1.97,1.45-3.91,2.99-5.84,4.57c-3.86,3.17-7.65,6.52-11.8,9.82
		c-2.08,1.65-4.23,3.3-6.64,4.8c-2.4,1.5-5.05,2.9-8.07,3.88c-3,0.98-6.44,1.47-9.8,1.08c-0.83-0.13-1.65-0.26-2.48-0.41l-2.38-0.66
		l-2.18-0.81c-0.72-0.29-1.42-0.65-2.13-0.98c-2.8-1.41-5.37-3.29-7.51-5.29c-2.15-2.01-3.94-4.05-5.63-5.96
		c-3.36-3.82-6.47-7.08-10.12-9.84c-3.64-2.75-7.63-5.08-11.94-6.85c-0.54-0.23-1.06-0.49-1.61-0.69l-1.66-0.59
		c-1.11-0.39-2.2-0.83-3.35-1.12l-3.43-0.98l-3.5-0.8c-1.16-0.3-2.36-0.45-3.56-0.65c-1.2-0.18-2.38-0.45-3.59-0.58
		c-2.43-0.25-4.84-0.62-7.31-0.73l-3.69-0.25c-1.23-0.08-2.48-0.05-3.72-0.1l-3.73-0.09l-3.75,0.07C43.8,46.07,33.69,47,23.46,47.95
		L23.23,46.98z"/>
</g>
<g>
	<g>
		<path class="st3" d="M236.45,140.77v98.14c0,2.32-1.88,4.19-4.19,4.19h-73.71c-2.33,0-4.21-1.89-4.19-4.22l0.04-5.69h9.46
			c4.65,0,8.45-3.81,8.45-8.45c0-4.65-3.8-8.45-8.45-8.45h-9.33l0.09-12.8c0.01-0.44,0.08-0.89,0.22-1.31l2.77-8.19
			c0.29-0.86,0.86-1.61,1.62-2.13l8.77-5.94c0.6-0.4,1.08-0.95,1.4-1.6l16.42-32.82l0.6-1.21c0,0,0.48-1.06,1.33-2.6
			c0.91-1.66,2.27-3.87,3.94-5.88c0.77-0.93,1.6-1.82,2.49-2.58c1.8-1.57,3.82-2.66,5.96-2.66h32.12
			C234.57,136.57,236.45,138.45,236.45,140.77z"/>
		<path class="st2" d="M172.31,224.74c0,4.64-3.8,8.45-8.45,8.45h-9.46l0.13-16.9h9.33C168.51,216.29,172.31,220.09,172.31,224.74z"
			/>
	</g>
	<rect x="220.84" y="136.57" class="st3" width="74.45" height="106.53"/>
</g>
<polygon class="st4" points="246.87,178.14 176.24,178.14 198.22,145.82 246.87,145.82 "/>
<path class="st3" d="M212.21,186.14l-12.62-28.74l-4.6-10.47c-0.85,1.54-1.33,2.6-1.33,2.6l-0.6,1.21l4.55,10.37l10.99,25.03H212.21
	z"/>
<path class="st3" d="M223.35,186.14l-14.2-32.33l-6.73-15.34c-0.89,0.76-1.72,1.65-2.49,2.58l5.61,12.76l14.2,32.33H223.35z"/>
<polygon class="st3" points="253.69,202.68 248.18,190.14 233.98,157.81 226.08,139.81 222.47,139.81 230.37,157.81 244.57,190.14 
	253.69,210.89 "/>
<path class="st4" d="M513.98,256.04v3.35c0,6.6-5.4,12-12,12H166.4c-6.6,0-12-5.4-12-12v-3.35c0-6.6,5.4-12,12-12h335.58
	C508.58,244.04,513.98,249.44,513.98,256.04z"/>
<path class="st5" d="M276.86,271.39c-1.74,22.27-20.37,39.8-43.09,39.8c-22.73,0-41.35-17.53-43.09-39.8h9.58
	c1.72,16.99,16.07,30.25,33.51,30.25s31.79-13.26,33.51-30.25H276.86z"/>
<path class="st4" d="M277,267.96c0,1.15-0.05,2.3-0.14,3.43h-9.58c-1.72,16.99-16.07,30.25-33.51,30.25s-31.79-13.26-33.51-30.25
	h-9.58c-0.09-1.13-0.14-2.28-0.14-3.43c0-8.85,2.66-17.08,7.22-23.92c7.75-11.64,20.98-19.3,36.01-19.3
	c15.02,0,28.26,7.66,36.01,19.3C274.34,250.88,277,259.11,277,267.96z"/>
<path class="st6" d="M267.45,267.96c0,1.16-0.06,2.3-0.17,3.43c-1.72,16.99-16.07,30.25-33.51,30.25s-31.79-13.26-33.51-30.25
	c-0.11-1.13-0.17-2.27-0.17-3.43c0-9.36,3.81-17.82,9.98-23.92c6.08-6.02,14.46-9.75,23.7-9.75c9.24,0,17.62,3.73,23.7,9.75
	C263.64,250.14,267.45,258.6,267.45,267.96z"/>
<circle class="st0" cx="233.77" cy="267.97" r="21.19"/>
<path class="st4" d="M474.63,267.96c0,1.15-0.05,2.3-0.14,3.43h-9.58c-1.72,16.99-16.07,30.25-33.51,30.25s-31.79-13.26-33.51-30.25
	h-9.58c-0.09-1.13-0.14-2.28-0.14-3.43c0-8.85,2.66-17.08,7.22-23.92c7.75-11.64,20.98-19.3,36.01-19.3
	c15.02,0,28.26,7.66,36.01,19.3C471.97,250.88,474.63,259.11,474.63,267.96z"/>
<path class="st6" d="M465.08,267.96c0,1.16-0.06,2.3-0.17,3.43c-1.72,16.99-16.07,30.25-33.51,30.25s-31.79-13.26-33.51-30.25
	c-0.11-1.13-0.17-2.27-0.17-3.43c0-9.36,3.81-17.82,9.98-23.92c6.08-6.02,14.46-9.75,23.7-9.75c9.24,0,17.62,3.73,23.7,9.75
	C461.27,250.14,465.08,258.6,465.08,267.96z"/>
<circle class="st0" cx="431.4" cy="267.97" r="21.19"/>
<polygon class="st2" points="432.01,120.12 436.61,137.41 454.48,136.44 439.45,146.16 445.9,162.86 432.01,151.57 418.12,162.86 
	424.56,146.16 409.53,136.44 427.41,137.41 "/>
<polygon class="st3" points="477.31,140.05 483.16,162.02 505.87,160.79 486.78,173.14 494.96,194.36 477.31,180.02 459.67,194.36 
	467.85,173.14 448.76,160.79 471.47,162.02 "/>
</svg>
